<?xml version="1.0" encoding="utf-8"?>
<svg xmlns="http://www.w3.org/2000/svg" width="118.247" height="32.397" viewBox="0 0 118.247 32.397">
  <g id="Group_1" data-name="Group 1" transform="translate(-91.554 -209.961)">
    <path id="Path_1" data-name="Path 1" d="M104.7,231.866a4.952,4.952,0,0,1-2.214,2.045,7.367,7.367,0,0,1-3.093.625,7.477,7.477,0,0,1-3.448-.76,6.913,6.913,0,0,1-2.45-2.062,9.347,9.347,0,0,1-1.454-2.992,12.547,12.547,0,0,1-.49-3.515,11.8,11.8,0,0,1,.49-3.4,8.83,8.83,0,0,1,1.454-2.89,7.054,7.054,0,0,1,5.8-2.772,6.87,6.87,0,0,1,2.958.66,5.156,5.156,0,0,1,2.214,1.944h.068v-8.79h4.8V234.1h-4.564v-2.231Zm-.2-8.637a5.1,5.1,0,0,0-.693-1.758,3.917,3.917,0,0,0-1.268-1.234,3.72,3.72,0,0,0-1.961-.473,3.9,3.9,0,0,0-1.994.473,3.742,3.742,0,0,0-1.3,1.251,5.533,5.533,0,0,0-.71,1.775,9.632,9.632,0,0,0-.219,2.079,8.887,8.887,0,0,0,.237,2.028,5.514,5.514,0,0,0,.76,1.809,4.2,4.2,0,0,0,1.318,1.285,3.572,3.572,0,0,0,1.91.49,3.8,3.8,0,0,0,1.977-.473,3.6,3.6,0,0,0,1.268-1.268,5.683,5.683,0,0,0,.676-1.809,10.676,10.676,0,0,0,.2-2.1A10.436,10.436,0,0,0,104.5,223.229Z" transform="translate(0)" fill="#fff"/>
    <path id="Path_2" data-name="Path 2" d="M199.921,213.916v-3.955h4.8v3.955Zm4.8,2.7V234.1h-4.8V216.621Z" transform="translate(-89.369)" fill="#fff"/>
    <path id="Path_3" data-name="Path 3" d="M228.847,219.832v-3.211h2.873v-1.352a5.234,5.234,0,0,1,1.454-3.82,5.889,5.889,0,0,1,4.394-1.488q.642,0,1.285.051t1.251.084v3.583a14.709,14.709,0,0,0-1.758-.1,1.84,1.84,0,0,0-1.4.456,2.242,2.242,0,0,0-.422,1.538v1.048h3.313v3.211h-3.313V234.1h-4.8V219.832Z" transform="translate(-113.224)" fill="#fff"/>
    <path id="Path_4" data-name="Path 4" d="M279.947,219.832v-3.211h2.873v-1.352a5.237,5.237,0,0,1,1.453-3.82,5.891,5.891,0,0,1,4.395-1.488q.642,0,1.285.051t1.251.084v3.583a14.7,14.7,0,0,0-1.758-.1,1.841,1.841,0,0,0-1.4.456,2.242,2.242,0,0,0-.422,1.538v1.048h3.313v3.211h-3.313V234.1h-4.8V219.832Z" transform="translate(-155.366)" fill="#fff"/>
    <path id="Path_5" data-name="Path 5" d="M356.76,265.427v-2.434h-.1a5.4,5.4,0,0,1-2.366,2.2,6.984,6.984,0,0,1-2.975.676,8.392,8.392,0,0,1-3.161-.507,4.554,4.554,0,0,1-1.944-1.436,5.615,5.615,0,0,1-1-2.265,14.1,14.1,0,0,1-.287-2.958V247.95h4.8v9.871a6.124,6.124,0,0,0,.676,3.229,2.618,2.618,0,0,0,2.4,1.065,3.328,3.328,0,0,0,2.84-1.166,6.485,6.485,0,0,0,.879-3.837V247.95h4.8v17.477Z" transform="translate(-208.956 -31.329)" fill="#fff"/>
    <path id="Path_6" data-name="Path 6" d="M444.876,258.855a2.789,2.789,0,0,0,.828.913,3.537,3.537,0,0,0,1.166.524,5.476,5.476,0,0,0,1.369.169,5.1,5.1,0,0,0,1.065-.118,3.63,3.63,0,0,0,1.014-.372,2.289,2.289,0,0,0,.761-.676,1.778,1.778,0,0,0,.3-1.065q0-1.081-1.437-1.622a28.828,28.828,0,0,0-4.005-1.082q-1.049-.236-2.046-.558a6.964,6.964,0,0,1-1.775-.845,4.1,4.1,0,0,1-1.25-1.319,3.728,3.728,0,0,1-.473-1.943,5.259,5.259,0,0,1,.659-2.772,4.862,4.862,0,0,1,1.741-1.707,7.639,7.639,0,0,1,2.434-.879,15,15,0,0,1,2.772-.254,13.889,13.889,0,0,1,2.755.27,7.309,7.309,0,0,1,2.383.913,5.48,5.48,0,0,1,1.741,1.707,5.74,5.74,0,0,1,.828,2.687h-4.563a2.1,2.1,0,0,0-1.048-1.876,4.794,4.794,0,0,0-2.231-.49,8.27,8.27,0,0,0-.879.05,2.958,2.958,0,0,0-.862.22,1.788,1.788,0,0,0-.659.49,1.3,1.3,0,0,0-.271.862,1.316,1.316,0,0,0,.474,1.048,3.654,3.654,0,0,0,1.234.659,15.364,15.364,0,0,0,1.741.456q.98.2,1.995.44a20.32,20.32,0,0,1,2.045.574,6.765,6.765,0,0,1,1.774.9,4.343,4.343,0,0,1,1.251,1.387,4.065,4.065,0,0,1,.473,2.045,5.308,5.308,0,0,1-2.5,4.766,7.409,7.409,0,0,1-2.552,1,14.889,14.889,0,0,1-2.924.287,14.5,14.5,0,0,1-2.975-.3,7.867,7.867,0,0,1-2.586-1.015,5.8,5.8,0,0,1-1.859-1.876,5.881,5.881,0,0,1-.795-2.925h4.564A2.626,2.626,0,0,0,444.876,258.855Z" transform="translate(-287.353 -29.102)" fill="#fff"/>
    <path id="Path_7" data-name="Path 7" d="M534.668,213.916v-3.955h4.8v3.955Zm4.8,2.7v25.737h-4.8V216.621Z" transform="translate(-365.433)" fill="#fff"/>
    <path id="Path_8" data-name="Path 8" d="M566.744,250.675a8,8,0,0,1,4.665-4.766,9.975,9.975,0,0,1,3.719-.66,10.108,10.108,0,0,1,3.735.66,7.96,7.96,0,0,1,4.682,4.766,10.736,10.736,0,0,1,.643,3.8,10.592,10.592,0,0,1-.643,3.786,8.226,8.226,0,0,1-1.825,2.891A7.941,7.941,0,0,1,578.863,263a10.359,10.359,0,0,1-3.735.643,10.222,10.222,0,0,1-3.719-.643,7.956,7.956,0,0,1-2.839-1.842,8.2,8.2,0,0,1-1.826-2.891,10.583,10.583,0,0,1-.642-3.786A10.727,10.727,0,0,1,566.744,250.675Zm4.361,5.849a5.466,5.466,0,0,0,.693,1.792,3.684,3.684,0,0,0,1.3,1.267,3.969,3.969,0,0,0,2.029.473,4.066,4.066,0,0,0,2.045-.473,3.647,3.647,0,0,0,1.318-1.267,5.444,5.444,0,0,0,.693-1.792,10.194,10.194,0,0,0,.2-2.045,10.447,10.447,0,0,0-.2-2.062,5.254,5.254,0,0,0-.693-1.792,3.849,3.849,0,0,0-1.318-1.268,3.961,3.961,0,0,0-2.045-.49,3.693,3.693,0,0,0-3.33,1.758,5.274,5.274,0,0,0-.693,1.792,10.493,10.493,0,0,0-.2,2.062A10.238,10.238,0,0,0,571.1,256.523Z" transform="translate(-391.356 -29.102)" fill="#fff"/>
    <path id="Path_9" data-name="Path 9" d="M677.107,245.723v2.434h.1a5.5,5.5,0,0,1,2.367-2.214,6.843,6.843,0,0,1,2.975-.693,8.162,8.162,0,0,1,3.16.524,4.687,4.687,0,0,1,1.944,1.454,5.62,5.62,0,0,1,1,2.265,14.077,14.077,0,0,1,.288,2.958V263.2h-4.8v-9.871a6.128,6.128,0,0,0-.676-3.228,2.619,2.619,0,0,0-2.4-1.065,3.326,3.326,0,0,0-2.84,1.167,6.479,6.479,0,0,0-.879,3.837V263.2h-4.8V245.723Z" transform="translate(-479.138 -29.102)" fill="#fff"/>
  </g>
</svg>
